<svg width="59" height="59" viewBox="0 0 59 59" fill="none" xmlns="http://www.w3.org/2000/svg">
<g clip-path="url(#clip0_5_26)">
<path d="M-9.53674e-07 57C-9.53674e-07 58.1046 0.89543 59 2 59L57 59C58.1046 59 59 58.1046 59 57L59 2C59 0.895429 58.1046 -9.53674e-07 57 -9.53674e-07L2 -9.53674e-07C0.895429 -9.53674e-07 -9.53674e-07 0.89543 -9.53674e-07 2L-9.53674e-07 57ZM23.136 18.5992C22.34 17.8324 22.317 16.5652 23.0846 15.7699L24.4039 14.4031C25.1706 13.6088 26.4359 13.586 27.2308 14.352L41.2398 27.8531C42.0491 28.6331 42.0569 29.9266 41.2572 30.7163L27.2417 44.5556C26.4545 45.3329 25.1858 45.3235 24.4103 44.5347L23.0843 43.186C22.3112 42.3996 22.3204 41.1359 23.1049 40.361L32.8146 30.7697C33.6142 29.9798 33.6061 28.6863 32.7967 27.9065L23.136 18.5992Z" fill="#F5EAEA"/>
</g>
<defs>
<clipPath id="clip0_5_26">
<rect width="59" height="59" rx="19" fill="white"/>
</clipPath>
</defs>
</svg>
